<svg class="rich-terminal" viewBox="0 0 506 342.79999999999995" xmlns="http://www.w3.org/2000/svg">
    <!-- Generated with Rich https://www.textualize.io -->
    <style>

    @font-face {
        font-family: "Fira Code";
        src: local("FiraCode-Regular"),
                url("https://cdnjs.cloudflare.com/ajax/libs/firacode/6.2.0/woff2/FiraCode-Regular.woff2") format("woff2"),
                url("https://cdnjs.cloudflare.com/ajax/libs/firacode/6.2.0/woff/FiraCode-Regular.woff") format("woff");
        font-style: normal;
        font-weight: 400;
    }
    @font-face {
        font-family: "Fira Code";
        src: local("FiraCode-Bold"),
                url("https://cdnjs.cloudflare.com/ajax/libs/firacode/6.2.0/woff2/FiraCode-Bold.woff2") format("woff2"),
                url("https://cdnjs.cloudflare.com/ajax/libs/firacode/6.2.0/woff/FiraCode-Bold.woff") format("woff");
        font-style: bold;
        font-weight: 700;
    }

    .terminal-matrix {
        font-family: Fira Code, monospace;
        font-size: 20px;
        line-height: 24.4px;
        font-variant-east-asian: full-width;
    }

    .terminal-title {
        font-size: 18px;
        font-weight: bold;
        font-family: arial;
    }

    .terminal-r1 { fill: #e0e0e0 }
.terminal-r2 { fill: #c5c8c6 }
.terminal-r3 { fill: #e0873c }
.terminal-r4 { fill: #f0ead8 }
.terminal-r5 { fill: #e5e9f0 }
.terminal-r6 { fill: #4b5d3a }
.terminal-r7 { fill: #ffa62b;font-weight: bold }
.terminal-r8 { fill: #495259 }
    </style>

    <defs>
    <clipPath id="terminal-clip-terminal">
      <rect x="0" y="0" width="487.0" height="291.79999999999995" />
    </clipPath>
    <clipPath id="terminal-line-0">
    <rect x="0" y="1.5" width="488" height="24.65"/>
            </clipPath>
<clipPath id="terminal-line-1">
    <rect x="0" y="25.9" width="488" height="24.65"/>
            </clipPath>
<clipPath id="terminal-line-2">
    <rect x="0" y="50.3" width="488" height="24.65"/>
            </clipPath>
<clipPath id="terminal-line-3">
    <rect x="0" y="74.7" width="488" height="24.65"/>
            </clipPath>
<clipPath id="terminal-line-4">
    <rect x="0" y="99.1" width="488" height="24.65"/>
            </clipPath>
<clipPath id="terminal-line-5">
    <rect x="0" y="123.5" width="488" height="24.65"/>
            </clipPath>
<clipPath id="terminal-line-6">
    <rect x="0" y="147.9" width="488" height="24.65"/>
            </clipPath>
<clipPath id="terminal-line-7">
    <rect x="0" y="172.3" width="488" height="24.65"/>
            </clipPath>
<clipPath id="terminal-line-8">
    <rect x="0" y="196.7" width="488" height="24.65"/>
            </clipPath>
<clipPath id="terminal-line-9">
    <rect x="0" y="221.1" width="488" height="24.65"/>
            </clipPath>
<clipPath id="terminal-line-10">
    <rect x="0" y="245.5" width="488" height="24.65"/>
            </clipPath>
    </defs>

    <rect fill="#292929" stroke="rgba(255,255,255,0.35)" stroke-width="1" x="1" y="1" width="504" height="340.8" rx="8"/><text class="terminal-title" fill="#c5c8c6" text-anchor="middle" x="252" y="27">BuddyApp</text>
            <g transform="translate(26,22)">
            <circle cx="0" cy="0" r="7" fill="#ff5f57"/>
            <circle cx="22" cy="0" r="7" fill="#febc2e"/>
            <circle cx="44" cy="0" r="7" fill="#28c840"/>
            </g>
        
    <g transform="translate(9, 41)" clip-path="url(#terminal-clip-terminal)">
    <rect fill="#121212" x="0" y="1.5" width="488" height="24.65" shape-rendering="crispEdges"/><rect fill="#121212" x="0" y="25.9" width="488" height="24.65" shape-rendering="crispEdges"/><rect fill="#121212" x="0" y="50.3" width="488" height="24.65" shape-rendering="crispEdges"/><rect fill="#121212" x="0" y="74.7" width="488" height="24.65" shape-rendering="crispEdges"/><rect fill="#121212" x="0" y="99.1" width="488" height="24.65" shape-rendering="crispEdges"/><rect fill="#121212" x="0" y="123.5" width="488" height="24.65" shape-rendering="crispEdges"/><rect fill="#121212" x="0" y="147.9" width="122" height="24.65" shape-rendering="crispEdges"/><rect fill="#121212" x="122" y="147.9" width="12.2" height="24.65" shape-rendering="crispEdges"/><rect fill="#121212" x="134.2" y="147.9" width="12.2" height="24.65" shape-rendering="crispEdges"/><rect fill="#121212" x="146.4" y="147.9" width="12.2" height="24.65" shape-rendering="crispEdges"/><rect fill="#121212" x="158.6" y="147.9" width="12.2" height="24.65" shape-rendering="crispEdges"/><rect fill="#121212" x="170.8" y="147.9" width="12.2" height="24.65" shape-rendering="crispEdges"/><rect fill="#121212" x="183" y="147.9" width="305" height="24.65" shape-rendering="crispEdges"/><rect fill="#121212" x="0" y="172.3" width="97.6" height="24.65" shape-rendering="crispEdges"/><rect fill="#121212" x="97.6" y="172.3" width="12.2" height="24.65" shape-rendering="crispEdges"/><rect fill="#121212" x="109.8" y="172.3" width="12.2" height="24.65" shape-rendering="crispEdges"/><rect fill="#121212" x="122" y="172.3" width="12.2" height="24.65" shape-rendering="crispEdges"/><rect fill="#121212" x="134.2" y="172.3" width="12.2" height="24.65" shape-rendering="crispEdges"/><rect fill="#121212" x="146.4" y="172.3" width="12.2" height="24.65" shape-rendering="crispEdges"/><rect fill="#121212" x="158.6" y="172.3" width="12.2" height="24.65" shape-rendering="crispEdges"/><rect fill="#121212" x="170.8" y="172.3" width="12.2" height="24.65" shape-rendering="crispEdges"/><rect fill="#121212" x="183" y="172.3" width="12.2" height="24.65" shape-rendering="crispEdges"/><rect fill="#121212" x="195.2" y="172.3" width="12.2" height="24.65" shape-rendering="crispEdges"/><rect fill="#121212" x="207.4" y="172.3" width="280.6" height="24.65" shape-rendering="crispEdges"/><rect fill="#121212" x="0" y="196.7" width="109.8" height="24.65" shape-rendering="crispEdges"/><rect fill="#121212" x="109.8" y="196.7" width="12.2" height="24.65" shape-rendering="crispEdges"/><rect fill="#121212" x="122" y="196.7" width="24.4" height="24.65" shape-rendering="crispEdges"/><rect fill="#121212" x="146.4" y="196.7" width="12.2" height="24.65" shape-rendering="crispEdges"/><rect fill="#121212" x="158.6" y="196.7" width="24.4" height="24.65" shape-rendering="crispEdges"/><rect fill="#121212" x="183" y="196.7" width="12.2" height="24.65" shape-rendering="crispEdges"/><rect fill="#121212" x="195.2" y="196.7" width="292.8" height="24.65" shape-rendering="crispEdges"/><rect fill="#121212" x="0" y="221.1" width="109.8" height="24.65" shape-rendering="crispEdges"/><rect fill="#121212" x="109.8" y="221.1" width="12.2" height="24.65" shape-rendering="crispEdges"/><rect fill="#121212" x="122" y="221.1" width="12.2" height="24.65" shape-rendering="crispEdges"/><rect fill="#121212" x="134.2" y="221.1" width="12.2" height="24.65" shape-rendering="crispEdges"/><rect fill="#121212" x="146.4" y="221.1" width="12.2" height="24.65" shape-rendering="crispEdges"/><rect fill="#121212" x="158.6" y="221.1" width="12.2" height="24.65" shape-rendering="crispEdges"/><rect fill="#121212" x="170.8" y="221.1" width="12.2" height="24.65" shape-rendering="crispEdges"/><rect fill="#121212" x="183" y="221.1" width="12.2" height="24.65" shape-rendering="crispEdges"/><rect fill="#121212" x="195.2" y="221.1" width="292.8" height="24.65" shape-rendering="crispEdges"/><rect fill="#121212" x="0" y="245.5" width="12.2" height="24.65" shape-rendering="crispEdges"/><rect fill="#121212" x="12.2" y="245.5" width="12.2" height="24.65" shape-rendering="crispEdges"/><rect fill="#121212" x="24.4" y="245.5" width="12.2" height="24.65" shape-rendering="crispEdges"/><rect fill="#121212" x="36.6" y="245.5" width="12.2" height="24.65" shape-rendering="crispEdges"/><rect fill="#121212" x="48.8" y="245.5" width="12.2" height="24.65" shape-rendering="crispEdges"/><rect fill="#121212" x="61" y="245.5" width="12.2" height="24.65" shape-rendering="crispEdges"/><rect fill="#121212" x="73.2" y="245.5" width="12.2" height="24.65" shape-rendering="crispEdges"/><rect fill="#121212" x="85.4" y="245.5" width="12.2" height="24.65" shape-rendering="crispEdges"/><rect fill="#121212" x="97.6" y="245.5" width="12.2" height="24.65" shape-rendering="crispEdges"/><rect fill="#121212" x="109.8" y="245.5" width="12.2" height="24.65" shape-rendering="crispEdges"/><rect fill="#121212" x="122" y="245.5" width="12.2" height="24.65" shape-rendering="crispEdges"/><rect fill="#121212" x="134.2" y="245.5" width="12.2" height="24.65" shape-rendering="crispEdges"/><rect fill="#121212" x="146.4" y="245.5" width="12.2" height="24.65" shape-rendering="crispEdges"/><rect fill="#121212" x="158.6" y="245.5" width="12.2" height="24.65" shape-rendering="crispEdges"/><rect fill="#121212" x="170.8" y="245.5" width="12.2" height="24.65" shape-rendering="crispEdges"/><rect fill="#121212" x="183" y="245.5" width="12.2" height="24.65" shape-rendering="crispEdges"/><rect fill="#121212" x="195.2" y="245.5" width="12.2" height="24.65" shape-rendering="crispEdges"/><rect fill="#121212" x="207.4" y="245.5" width="12.2" height="24.65" shape-rendering="crispEdges"/><rect fill="#121212" x="219.6" y="245.5" width="12.2" height="24.65" shape-rendering="crispEdges"/><rect fill="#121212" x="231.8" y="245.5" width="12.2" height="24.65" shape-rendering="crispEdges"/><rect fill="#121212" x="244" y="245.5" width="12.2" height="24.65" shape-rendering="crispEdges"/><rect fill="#121212" x="256.2" y="245.5" width="12.2" height="24.65" shape-rendering="crispEdges"/><rect fill="#121212" x="268.4" y="245.5" width="12.2" height="24.65" shape-rendering="crispEdges"/><rect fill="#121212" x="280.6" y="245.5" width="12.2" height="24.65" shape-rendering="crispEdges"/><rect fill="#121212" x="292.8" y="245.5" width="12.2" height="24.65" shape-rendering="crispEdges"/><rect fill="#121212" x="305" y="245.5" width="12.2" height="24.65" shape-rendering="crispEdges"/><rect fill="#121212" x="317.2" y="245.5" width="12.2" height="24.65" shape-rendering="crispEdges"/><rect fill="#121212" x="329.4" y="245.5" width="12.2" height="24.65" shape-rendering="crispEdges"/><rect fill="#121212" x="341.6" y="245.5" width="12.2" height="24.65" shape-rendering="crispEdges"/><rect fill="#121212" x="353.8" y="245.5" width="12.2" height="24.65" shape-rendering="crispEdges"/><rect fill="#121212" x="366" y="245.5" width="12.2" height="24.65" shape-rendering="crispEdges"/><rect fill="#121212" x="378.2" y="245.5" width="12.2" height="24.65" shape-rendering="crispEdges"/><rect fill="#121212" x="390.4" y="245.5" width="12.2" height="24.65" shape-rendering="crispEdges"/><rect fill="#121212" x="402.6" y="245.5" width="12.2" height="24.65" shape-rendering="crispEdges"/><rect fill="#121212" x="414.8" y="245.5" width="12.2" height="24.65" shape-rendering="crispEdges"/><rect fill="#121212" x="427" y="245.5" width="12.2" height="24.65" shape-rendering="crispEdges"/><rect fill="#121212" x="439.2" y="245.5" width="12.2" height="24.65" shape-rendering="crispEdges"/><rect fill="#121212" x="451.4" y="245.5" width="12.2" height="24.65" shape-rendering="crispEdges"/><rect fill="#121212" x="463.6" y="245.5" width="12.2" height="24.65" shape-rendering="crispEdges"/><rect fill="#121212" x="475.8" y="245.5" width="12.2" height="24.65" shape-rendering="crispEdges"/><rect fill="#242f38" x="0" y="269.9" width="36.6" height="24.65" shape-rendering="crispEdges"/><rect fill="#242f38" x="36.6" y="269.9" width="61" height="24.65" shape-rendering="crispEdges"/><rect fill="#242f38" x="97.6" y="269.9" width="85.4" height="24.65" shape-rendering="crispEdges"/><rect fill="#242f38" x="183" y="269.9" width="158.6" height="24.65" shape-rendering="crispEdges"/><rect fill="#242f38" x="341.6" y="269.9" width="12.2" height="24.65" shape-rendering="crispEdges"/><rect fill="#242f38" x="353.8" y="269.9" width="24.4" height="24.65" shape-rendering="crispEdges"/><rect fill="#242f38" x="378.2" y="269.9" width="97.6" height="24.65" shape-rendering="crispEdges"/><rect fill="#242f38" x="475.8" y="269.9" width="12.2" height="24.65" shape-rendering="crispEdges"/>
    <g class="terminal-matrix">
    <text class="terminal-r2" x="488" y="20" textLength="12.2" clip-path="url(#terminal-line-0)">
</text><text class="terminal-r2" x="488" y="44.4" textLength="12.2" clip-path="url(#terminal-line-1)">
</text><text class="terminal-r2" x="488" y="68.8" textLength="12.2" clip-path="url(#terminal-line-2)">
</text><text class="terminal-r2" x="488" y="93.2" textLength="12.2" clip-path="url(#terminal-line-3)">
</text><text class="terminal-r2" x="488" y="117.6" textLength="12.2" clip-path="url(#terminal-line-4)">
</text><text class="terminal-r2" x="488" y="142" textLength="12.2" clip-path="url(#terminal-line-5)">
</text><text class="terminal-r3" x="122" y="166.4" textLength="12.2" clip-path="url(#terminal-line-6)">/</text><text class="terminal-r3" x="134.2" y="166.4" textLength="12.2" clip-path="url(#terminal-line-6)">\</text><text class="terminal-r3" x="146.4" y="166.4" textLength="12.2" clip-path="url(#terminal-line-6)">_</text><text class="terminal-r3" x="158.6" y="166.4" textLength="12.2" clip-path="url(#terminal-line-6)">/</text><text class="terminal-r3" x="170.8" y="166.4" textLength="12.2" clip-path="url(#terminal-line-6)">\</text><text class="terminal-r2" x="488" y="166.4" textLength="12.2" clip-path="url(#terminal-line-6)">
</text><text class="terminal-r4" x="97.6" y="190.8" textLength="12.2" clip-path="url(#terminal-line-7)">=</text><text class="terminal-r3" x="109.8" y="190.8" textLength="12.2" clip-path="url(#terminal-line-7)">(</text><text class="terminal-r5" x="134.2" y="190.8" textLength="12.2" clip-path="url(#terminal-line-7)">o</text><text class="terminal-r3" x="146.4" y="190.8" textLength="12.2" clip-path="url(#terminal-line-7)">.</text><text class="terminal-r5" x="158.6" y="190.8" textLength="12.2" clip-path="url(#terminal-line-7)">o</text><text class="terminal-r3" x="183" y="190.8" textLength="12.2" clip-path="url(#terminal-line-7)">)</text><text class="terminal-r4" x="195.2" y="190.8" textLength="12.2" clip-path="url(#terminal-line-7)">=</text><text class="terminal-r2" x="488" y="190.8" textLength="12.2" clip-path="url(#terminal-line-7)">
</text><text class="terminal-r3" x="109.8" y="215.2" textLength="12.2" clip-path="url(#terminal-line-8)">(</text><text class="terminal-r3" x="146.4" y="215.2" textLength="12.2" clip-path="url(#terminal-line-8)">^</text><text class="terminal-r3" x="183" y="215.2" textLength="12.2" clip-path="url(#terminal-line-8)">)</text><text class="terminal-r2" x="488" y="215.2" textLength="12.2" clip-path="url(#terminal-line-8)">
</text><text class="terminal-r3" x="109.8" y="239.6" textLength="12.2" clip-path="url(#terminal-line-9)">(</text><text class="terminal-r3" x="122" y="239.6" textLength="12.2" clip-path="url(#terminal-line-9)">_</text><text class="terminal-r3" x="134.2" y="239.6" textLength="12.2" clip-path="url(#terminal-line-9)">_</text><text class="terminal-r3" x="146.4" y="239.6" textLength="12.2" clip-path="url(#terminal-line-9)">_</text><text class="terminal-r3" x="158.6" y="239.6" textLength="12.2" clip-path="url(#terminal-line-9)">_</text><text class="terminal-r3" x="170.8" y="239.6" textLength="12.2" clip-path="url(#terminal-line-9)">_</text><text class="terminal-r3" x="183" y="239.6" textLength="12.2" clip-path="url(#terminal-line-9)">)</text><text class="terminal-r2" x="488" y="239.6" textLength="12.2" clip-path="url(#terminal-line-9)">
</text><text class="terminal-r6" x="0" y="264" textLength="12.2" clip-path="url(#terminal-line-10)">~</text><text class="terminal-r6" x="12.2" y="264" textLength="12.2" clip-path="url(#terminal-line-10)">~</text><text class="terminal-r6" x="24.4" y="264" textLength="12.2" clip-path="url(#terminal-line-10)">~</text><text class="terminal-r6" x="36.6" y="264" textLength="12.2" clip-path="url(#terminal-line-10)">~</text><text class="terminal-r6" x="48.8" y="264" textLength="12.2" clip-path="url(#terminal-line-10)">~</text><text class="terminal-r6" x="61" y="264" textLength="12.2" clip-path="url(#terminal-line-10)">~</text><text class="terminal-r6" x="73.2" y="264" textLength="12.2" clip-path="url(#terminal-line-10)">~</text><text class="terminal-r6" x="85.4" y="264" textLength="12.2" clip-path="url(#terminal-line-10)">~</text><text class="terminal-r6" x="97.6" y="264" textLength="12.2" clip-path="url(#terminal-line-10)">~</text><text class="terminal-r6" x="109.8" y="264" textLength="12.2" clip-path="url(#terminal-line-10)">~</text><text class="terminal-r3" x="122" y="264" textLength="12.2" clip-path="url(#terminal-line-10)">u</text><text class="terminal-r6" x="134.2" y="264" textLength="12.2" clip-path="url(#terminal-line-10)">~</text><text class="terminal-r6" x="146.4" y="264" textLength="12.2" clip-path="url(#terminal-line-10)">~</text><text class="terminal-r6" x="158.6" y="264" textLength="12.2" clip-path="url(#terminal-line-10)">~</text><text class="terminal-r3" x="170.8" y="264" textLength="12.2" clip-path="url(#terminal-line-10)">u</text><text class="terminal-r6" x="183" y="264" textLength="12.2" clip-path="url(#terminal-line-10)">~</text><text class="terminal-r6" x="195.2" y="264" textLength="12.2" clip-path="url(#terminal-line-10)">~</text><text class="terminal-r6" x="207.4" y="264" textLength="12.2" clip-path="url(#terminal-line-10)">~</text><text class="terminal-r6" x="219.6" y="264" textLength="12.2" clip-path="url(#terminal-line-10)">~</text><text class="terminal-r6" x="231.8" y="264" textLength="12.2" clip-path="url(#terminal-line-10)">~</text><text class="terminal-r6" x="244" y="264" textLength="12.2" clip-path="url(#terminal-line-10)">~</text><text class="terminal-r6" x="256.2" y="264" textLength="12.2" clip-path="url(#terminal-line-10)">~</text><text class="terminal-r6" x="268.4" y="264" textLength="12.2" clip-path="url(#terminal-line-10)">~</text><text class="terminal-r6" x="280.6" y="264" textLength="12.2" clip-path="url(#terminal-line-10)">~</text><text class="terminal-r6" x="292.8" y="264" textLength="12.2" clip-path="url(#terminal-line-10)">~</text><text class="terminal-r6" x="305" y="264" textLength="12.2" clip-path="url(#terminal-line-10)">~</text><text class="terminal-r6" x="317.2" y="264" textLength="12.2" clip-path="url(#terminal-line-10)">~</text><text class="terminal-r6" x="329.4" y="264" textLength="12.2" clip-path="url(#terminal-line-10)">~</text><text class="terminal-r6" x="341.6" y="264" textLength="12.2" clip-path="url(#terminal-line-10)">~</text><text class="terminal-r6" x="353.8" y="264" textLength="12.2" clip-path="url(#terminal-line-10)">~</text><text class="terminal-r6" x="366" y="264" textLength="12.2" clip-path="url(#terminal-line-10)">~</text><text class="terminal-r6" x="378.2" y="264" textLength="12.2" clip-path="url(#terminal-line-10)">~</text><text class="terminal-r6" x="390.4" y="264" textLength="12.2" clip-path="url(#terminal-line-10)">~</text><text class="terminal-r6" x="402.6" y="264" textLength="12.2" clip-path="url(#terminal-line-10)">~</text><text class="terminal-r6" x="414.8" y="264" textLength="12.2" clip-path="url(#terminal-line-10)">~</text><text class="terminal-r6" x="427" y="264" textLength="12.2" clip-path="url(#terminal-line-10)">~</text><text class="terminal-r6" x="439.2" y="264" textLength="12.2" clip-path="url(#terminal-line-10)">~</text><text class="terminal-r6" x="451.4" y="264" textLength="12.2" clip-path="url(#terminal-line-10)">~</text><text class="terminal-r6" x="463.6" y="264" textLength="12.2" clip-path="url(#terminal-line-10)">~</text><text class="terminal-r6" x="475.8" y="264" textLength="12.2" clip-path="url(#terminal-line-10)">~</text><text class="terminal-r2" x="488" y="264" textLength="12.2" clip-path="url(#terminal-line-10)">
</text><text class="terminal-r7" x="0" y="288.4" textLength="36.6" clip-path="url(#terminal-line-11)">&#160;q&#160;</text><text class="terminal-r1" x="36.6" y="288.4" textLength="61" clip-path="url(#terminal-line-11)">Quit&#160;</text><text class="terminal-r7" x="97.6" y="288.4" textLength="85.4" clip-path="url(#terminal-line-11)">&#160;space&#160;</text><text class="terminal-r1" x="183" y="288.4" textLength="158.6" clip-path="url(#terminal-line-11)">Next&#160;critter&#160;</text><text class="terminal-r8" x="341.6" y="288.4" textLength="12.2" clip-path="url(#terminal-line-11)">▏</text><text class="terminal-r7" x="353.8" y="288.4" textLength="24.4" clip-path="url(#terminal-line-11)">^p</text><text class="terminal-r1" x="378.2" y="288.4" textLength="97.6" clip-path="url(#terminal-line-11)">&#160;palette</text>
    </g>
    </g>
</svg>
